HIERARCHY
ROOT Hips
{
	OFFSET 0.000000 0.000000 0.000000
	CHANNELS 6 Xposition Yposition Zposition Zrotation Yrotation Xrotation 
	JOINT LeftUpLeg_virtual
	{
		OFFSET 0.000000 0.000000 0.000000
		CHANNELS 3 Zrotation Yrotation Xrotation
		JOINT LeftUpLeg
		{
			OFFSET 10.205400 -3.823500 0.155100
			CHANNELS 3 Zrotation Yrotation Xrotation
			JOINT LeftLeg
			{
				OFFSET 0.708757 -12.982077 0.567790
				CHANNELS 3 Zrotation Yrotation Xrotation
				JOINT LeftFoot
				{
					OFFSET -0.708756 -10.717838 -2.184338
					CHANNELS 3 Zrotation Yrotation Xrotation
					JOINT LeftToeBase
					{
						OFFSET 0.108149 -7.191104 7.560241
						CHANNELS 3 Zrotation Yrotation Xrotation
						End Site
						{
							OFFSET 0.000000 0.000000 0.000000
						}
					}
				}
			}
		}
	}
	JOINT RightUpLeg_virtual
	{
		OFFSET 0.000000 0.000000 0.000000
		CHANNELS 3 Zrotation Yrotation Xrotation
		JOINT RightUpLeg
		{
			OFFSET -10.205400 -3.823500 0.005500
			CHANNELS 3 Zrotation Yrotation Xrotation
			JOINT RightLeg
			{
				OFFSET -0.708756 -12.982134 0.610632
				CHANNELS 3 Zrotation Yrotation Xrotation
				JOINT RightFoot
				{
					OFFSET 0.708754 -10.717769 -1.945823
					CHANNELS 3 Zrotation Yrotation Xrotation
					JOINT RightToeBase
					{
						OFFSET -0.108140 -7.191069 7.372968
						CHANNELS 3 Zrotation Yrotation Xrotation
						End Site
						{
							OFFSET 0.000000 0.000000 0.000000
						}
					}
				}
			}
		}
	}
	JOINT Spine_virtual
	{
		OFFSET 0.000000 0.000000 0.000000
		CHANNELS 3 Zrotation Yrotation Xrotation
		JOINT Spine
		{
			OFFSET 0.000000 6.876099 0.125700
			CHANNELS 3 Zrotation Yrotation Xrotation
			JOINT Spine1
			{
				OFFSET 0.000000 8.022060 0.146608
				CHANNELS 3 Zrotation Yrotation Xrotation
				JOINT Spine2
				{
					OFFSET 0.000000 9.168068 0.167552
					CHANNELS 3 Zrotation Yrotation Xrotation
					JOINT Neck_virtual
					{
						OFFSET 0.000000 0.000000 0.000000
						CHANNELS 3 Zrotation Yrotation Xrotation
						JOINT Neck
						{
							OFFSET 0.000000 10.314075 0.188496
							CHANNELS 3 Zrotation Yrotation Xrotation
							JOINT Head
							{
								OFFSET 0.000000 7.643700 -2.377400
								CHANNELS 3 Zrotation Yrotation Xrotation
								End Site
								{
									OFFSET 0.000000 0.000000 0.000000
								}
							}
						}
					}
					JOINT LeftShoulder_virtual
					{
						OFFSET 0.000000 0.000000 0.000000
						CHANNELS 3 Zrotation Yrotation Xrotation
						JOINT LeftShoulder
						{
							OFFSET 4.392200 8.824978 0.174984
							CHANNELS 3 Zrotation Yrotation Xrotation
							JOINT LeftArm
							{
								OFFSET 8.771219 -2.981674 -0.026999
								CHANNELS 3 Zrotation Yrotation Xrotation
								JOINT LeftForeArm
								{
									OFFSET 8.512804 0.000000 -0.000000
									CHANNELS 3 Zrotation Yrotation Xrotation
									JOINT LeftHand
									{
										OFFSET 18.484802 0.000000 -0.000000
										CHANNELS 3 Zrotation Yrotation Xrotation
										End Site
										{
											OFFSET 0.000000 0.000000 0.000000
										}
									}
								}
							}
						}
					}
					JOINT RightShoulder_virtual
					{
						OFFSET 0.000000 0.000000 0.000000
						CHANNELS 3 Zrotation Yrotation Xrotation
						JOINT RightShoulder
						{
							OFFSET -4.392200 8.824993 0.141379
							CHANNELS 3 Zrotation Yrotation Xrotation
							JOINT RightArm
							{
								OFFSET -8.771282 -2.981682 -0.094208
								CHANNELS 3 Zrotation Yrotation Xrotation
								JOINT RightForeArm
								{
									OFFSET -8.494598 0.000000 0.000000
									CHANNELS 3 Zrotation Yrotation Xrotation
									JOINT RightHand
									{
										OFFSET -18.483803 0.000000 0.000001
										CHANNELS 3 Zrotation Yrotation Xrotation
										End Site
										{
											OFFSET 0.000000 0.000000 0.000000
										}
									}
								}
							}
						}
					}
				}
			}
		}
	}
}
MOTION
Frames: 13
Frame Time: 0.033333
-11.373885 34.853470 90.185120 179.834168 6.169590 -179.356956 -2.240884 -5.511786 11.642326 -12.090213 -0.927722 -27.410854 20.022990 6.822976 23.357186 -7.426519 -0.957797 7.906615 0.000000 0.000000 0.000000 2.693165 -2.400811 7.892291 2.239531 12.011105 -27.830663 -6.717959 -0.025619 19.268408 2.583319 3.808871 7.721650 0.000000 0.000000 0.000000 1.879340 -0.857045 -1.438057 -1.702216 0.253063 -8.381122 -0.151045 -2.312736 9.789032 0.050828 0.079137 0.059132 -0.570166 -0.190309 13.324921 1.134420 -1.989534 13.478355 0.000000 0.000000 0.000000 0.680090 0.655970 10.057718 -18.595296 -11.035407 2.260556 -50.156316 17.172275 13.508522 -3.508018 -24.550097 5.429171 0.000000 0.000000 0.000000 -2.676956 1.685897 9.753199 24.150552 5.711994 2.774598 41.052811 -19.359273 18.289696 -5.447311 28.798670 -3.982792 0.000000 0.000000 0.000000 
-11.351696 34.848297 90.241943 179.750198 6.056424 -179.142065 -2.293228 -5.339730 12.054527 -11.804837 -1.033222 -27.086888 20.110884 6.406218 23.609365 -7.674522 -1.260747 8.405359 0.000000 0.000000 0.000000 2.550613 -2.277492 8.013472 2.425464 11.902652 -27.982286 -6.644569 -0.581273 19.432996 2.470736 3.720733 7.895636 0.000000 0.000000 0.000000 1.775542 -0.885300 -1.449782 -1.718417 0.190026 -8.554184 -0.157943 -2.357073 9.796768 -0.009172 0.032980 0.167176 -0.484920 -0.314407 13.186548 1.186746 -1.968575 13.244783 0.000000 0.000000 0.000000 0.754876 0.635435 10.025318 -18.621300 -11.066335 2.310079 -50.118839 17.025727 13.671856 -3.527236 -24.648107 5.538221 0.000000 0.000000 0.000000 -2.624643 1.718417 9.686445 24.078970 5.749710 2.792703 40.960180 -19.255751 18.346697 -5.369335 28.707944 -3.325366 0.000000 0.000000 0.000000 
-11.332589 34.840729 90.306747 179.776207 5.987782 -179.201802 -2.309996 -5.280224 12.193333 -11.631878 -1.114366 -27.190457 19.961870 6.281067 23.592969 -7.695624 -1.313972 8.341147 0.000000 0.000000 0.000000 2.661047 -2.179835 8.235499 2.425142 11.829431 -28.230147 -6.660685 -0.211792 19.487874 2.241111 3.611564 7.927145 0.000000 0.000000 0.000000 1.759770 -0.837689 -1.245146 -1.690439 0.247490 -8.632645 -0.134605 -2.315358 9.761851 -0.007474 0.071200 0.106747 -0.462432 -0.302168 13.214628 1.184376 -2.050062 13.208371 0.000000 0.000000 0.000000 0.767660 0.627739 10.061857 -18.603407 -11.177758 2.389397 -50.040408 16.704754 13.884345 -3.449795 -24.645071 5.543657 0.000000 0.000000 0.000000 -2.583980 1.660765 9.707197 24.153991 5.618222 2.837720 40.842557 -18.891499 18.458079 -5.403954 28.604918 -3.405475 0.000000 0.000000 0.000000 
-11.310189 34.835876 90.354149 179.779158 5.783114 -179.216254 -2.345823 -5.296556 12.301677 -11.427219 -1.210729 -27.323470 19.812446 6.235211 23.535440 -7.742443 -1.364017 8.308926 0.000000 0.000000 0.000000 2.747392 -2.226082 8.434782 2.399155 11.827408 -28.502212 -6.698100 -0.090029 19.621989 2.119500 3.544073 7.880576 0.000000 0.000000 0.000000 1.729675 -0.857668 -1.227188 -1.652265 0.314084 -8.694004 -0.086823 -2.264179 9.969346 0.010886 0.077088 0.052744 -0.434689 -0.254559 13.188048 1.227359 -2.098092 13.074523 0.000000 0.000000 0.000000 0.802030 0.600232 10.023778 -18.571045 -11.429457 2.503919 -49.980555 16.473492 14.073331 -3.403008 -24.450458 5.630602 0.000000 0.000000 0.000000 -2.580484 1.679661 9.677104 24.199304 5.632398 2.792344 40.550594 -18.537180 18.608644 -5.432954 28.370350 -3.403047 0.000000 0.000000 0.000000 
-11.299153 34.835506 90.375252 179.831887 5.554718 -179.261457 -2.299853 -5.346670 12.398694 -11.265849 -1.250563 -27.402999 19.635006 6.276460 23.487421 -7.843899 -1.403158 8.329943 0.000000 0.000000 0.000000 2.899093 -2.324733 8.606762 2.493558 11.564258 -28.679292 -6.743427 0.405019 19.798628 1.916538 3.505557 7.827843 0.000000 0.000000 0.000000 1.753011 -0.896596 -0.955131 -1.560000 0.407828 -8.789876 -0.029047 -2.254376 9.757927 0.022042 0.063812 0.219416 -0.433212 -0.144074 13.245390 1.209913 -2.199464 13.000365 0.000000 0.000000 0.000000 0.796998 0.714468 10.020204 -18.512601 -11.557587 2.624896 -49.898459 16.363815 14.040548 -3.298542 -24.268400 5.665792 0.000000 0.000000 0.000000 -2.572085 1.702535 9.678452 24.265784 5.553352 2.780059 40.333633 -18.064059 18.729719 -5.567019 28.136017 -3.367393 0.000000 0.000000 0.000000 
-11.290193 34.842266 90.375961 179.754268 5.229062 -179.256757 -2.395168 -5.485243 12.488856 -11.107149 -1.237767 -27.524399 19.617960 6.413378 23.436355 -8.030411 -1.504254 8.399802 0.000000 0.000000 0.000000 2.824943 -2.536426 8.696516 2.457188 11.518089 -28.878948 -6.757565 0.259522 20.028042 1.888388 3.596732 7.714072 0.000000 0.000000 0.000000 1.666831 -0.936702 -0.826806 -1.506434 0.522561 -8.826454 0.010695 -2.245875 9.807099 0.034033 0.060998 0.198930 -0.383296 -0.169312 13.234900 1.093690 -2.312190 12.854410 0.000000 0.000000 0.000000 0.868137 0.690176 10.095551 -18.504845 -11.723067 2.695070 -49.870285 16.366783 13.953903 -3.188448 -24.159940 5.761925 0.000000 0.000000 0.000000 -2.492331 1.634365 9.718814 24.307964 5.490666 2.738243 40.049504 -17.681869 18.954101 -5.715830 27.968904 -3.362035 0.000000 0.000000 0.000000 
-11.274186 34.851181 90.385162 179.712522 4.903712 -179.251129 -2.463496 -5.627731 12.588372 -10.957944 -1.184602 -27.658576 19.517322 6.473871 23.356769 -8.207101 -1.516607 8.517248 0.000000 0.000000 0.000000 2.805814 -2.710260 8.761485 2.506469 11.213666 -29.049870 -6.681094 0.383916 20.244028 1.730886 3.681583 7.670966 0.000000 0.000000 0.000000 1.609621 -0.994003 -0.716530 -1.408724 0.664432 -8.809289 0.065050 -2.233857 10.015106 0.010280 0.062049 0.057772 -0.341798 -0.185515 13.172456 0.992787 -2.424591 12.592536 0.000000 0.000000 0.000000 0.949240 0.703343 10.080462 -18.462824 -11.830301 2.760093 -49.892807 16.399709 13.813620 -3.104811 -24.120386 5.844763 0.000000 0.000000 0.000000 -2.397633 1.744380 9.649519 24.335380 5.264188 2.762039 39.856210 -17.494374 19.198974 -5.847591 27.891112 -3.349237 0.000000 0.000000 0.000000 
-11.264855 34.852283 90.404404 179.749706 4.617282 -179.305826 -2.430655 -5.697731 12.692539 -10.869900 -1.154260 -27.771448 19.359264 6.474321 23.268158 -8.366372 -1.484488 8.655805 0.000000 0.000000 0.000000 2.874889 -2.825662 8.858924 2.569054 10.842108 -29.167233 -6.473802 0.547628 20.412268 1.514329 3.707541 7.675731 0.000000 0.000000 0.000000 1.627486 -1.023415 -0.355188 -1.272967 0.871424 -8.823113 0.089925 -2.206316 9.846133 0.050905 0.088243 0.138904 -0.287590 -0.191557 13.100150 0.876006 -2.516250 12.452659 0.000000 0.000000 0.000000 1.005064 0.655125 10.124260 -18.460972 -11.989458 2.777100 -49.910433 16.442868 13.851702 -3.031896 -24.099838 5.869157 0.000000 0.000000 0.000000 -2.366710 1.651840 9.635451 24.355720 5.046659 2.782251 39.604866 -17.391200 19.448327 -6.038794 27.927151 -3.419355 0.000000 0.000000 0.000000 
-11.255945 34.850903 90.452881 179.777546 4.350488 -179.320838 -2.407558 -5.712703 12.701913 -10.765010 -1.156689 -27.888694 19.213836 6.465120 23.159293 -8.479514 -1.488672 8.806168 0.000000 0.000000 0.000000 2.892152 -2.854944 8.863390 2.645094 10.479236 -29.250521 -6.365946 0.393993 20.551368 1.490978 3.821905 7.689507 0.000000 0.000000 0.000000 1.678852 -1.098459 -0.147904 -1.142834 0.995429 -8.767323 0.091883 -2.288604 9.850216 -0.054145 0.035159 0.148660 -0.264403 -0.212082 12.973679 0.798231 -2.617778 12.293360 0.000000 0.000000 0.000000 1.076629 0.691603 10.047085 -18.474284 -12.021166 2.764963 -49.888460 16.538804 14.103603 -2.960147 -23.999215 5.919270 0.000000 0.000000 0.000000 -2.298314 1.698447 9.576089 24.323492 4.991496 2.742909 39.449964 -17.280566 19.645738 -6.180925 28.093237 -3.528868 0.000000 0.000000 0.000000 
-11.260976 34.848228 90.521194 179.780264 4.212277 -179.332709 -2.388772 -5.650980 12.588753 -10.688030 -1.154490 -27.936821 19.071282 6.564249 23.071163 -8.548754 -1.595587 8.999739 0.000000 0.000000 0.000000 2.894271 -2.788007 8.749170 2.666828 10.190912 -29.238281 -6.285651 0.442089 20.630988 1.444631 3.846291 7.731268 0.000000 0.000000 0.000000 1.731197 -1.062123 -0.010846 -1.018275 1.300240 -8.711678 0.027059 -2.232761 9.865919 -0.004190 0.097264 0.074241 -0.245210 -0.407594 12.968472 0.846710 -2.749028 12.242385 0.000000 0.000000 0.000000 1.095463 0.535750 10.087062 -18.542852 -12.193458 2.672535 -49.720830 16.517139 14.420257 -2.891956 -23.921283 5.939926 0.000000 0.000000 0.000000 -2.292247 1.519979 9.591814 24.322867 4.792026 2.756296 39.302350 -17.309745 19.761318 -6.377764 28.335844 -3.683865 0.000000 0.000000 0.000000 
-11.295603 34.848812 90.568245 179.869425 4.180174 -179.330264 -2.289269 -5.497349 12.411282 -10.651537 -0.973486 -27.907661 18.813954 6.616012 22.961458 -8.424222 -1.743024 9.225016 0.000000 0.000000 0.000000 3.049143 -2.625574 8.531133 2.723767 9.938227 -29.074285 -6.302589 0.793518 20.680657 1.323453 3.762726 7.684099 0.000000 0.000000 0.000000 1.841649 -1.048608 0.035282 -0.846986 1.500548 -8.634352 -0.027463 -2.332954 9.964143 0.025746 0.090518 0.152833 -0.393667 -0.378900 12.830985 1.039199 -2.974485 12.284461 0.000000 0.000000 0.000000 0.972884 0.521259 9.977126 -18.639579 -12.278044 2.605949 -49.457581 16.514052 14.834502 -2.856952 -23.688093 5.979324 0.000000 0.000000 0.000000 -2.433827 1.423868 9.521665 24.362551 4.770758 2.592562 39.296250 -17.299734 19.708873 -6.375211 28.613170 -3.731351 0.000000 0.000000 0.000000 
-11.333103 34.864819 90.602203 179.847186 4.332792 -179.338993 -2.306060 -5.312417 12.232170 -10.527052 -0.793542 -27.817897 18.224622 6.609682 22.871162 -8.082440 -1.706463 9.438021 0.000000 0.000000 0.000000 3.155352 -2.398653 8.228134 2.570735 10.007714 -28.868242 -6.324752 1.049185 20.787595 1.181383 3.724510 7.599740 0.000000 0.000000 0.000000 1.893616 -1.046086 0.033570 -0.699410 1.770622 -8.575421 -0.118077 -2.386113 10.159786 -0.011441 0.117536 0.134504 -0.478407 -0.467532 12.856877 1.500636 -3.260407 12.548204 0.000000 0.000000 0.000000 0.903194 0.414807 9.946505 -18.663941 -12.379901 2.486115 -48.999907 16.362066 15.313050 -2.867380 -23.436611 6.013118 0.000000 0.000000 0.000000 -2.513135 1.383400 9.529709 24.502822 4.781503 2.545321 39.353607 -17.436165 19.518041 -6.485268 28.841727 -3.986682 0.000000 0.000000 0.000000 
-11.372945 34.892113 90.567596 -179.991208 4.543573 -179.285308 -2.097045 -5.164392 12.166203 -10.442525 -0.668508 -27.784054 17.869247 6.955936 22.958428 -7.785182 -2.008584 9.590745 0.000000 0.000000 0.000000 3.489469 -2.336079 7.968307 2.372448 10.106469 -28.661806 -6.324172 1.556129 20.897775 1.131950 3.635860 7.419763 0.000000 0.000000 0.000000 2.040870 -1.056381 0.082556 -0.465653 1.938313 -8.528683 -0.214667 -2.547463 10.274216 -0.017220 0.136096 0.157264 -0.640160 -0.530834 12.931391 2.205352 -3.636372 13.055780 0.000000 0.000000 0.000000 0.716426 0.442615 9.838606 -18.682898 -12.279923 2.391107 -48.401039 16.103320 15.979892 -2.868231 -23.435885 6.076704 0.000000 0.000000 0.000000 -2.634969 1.356541 9.628512 24.694382 4.664327 2.326950 39.523508 -17.690431 19.211797 -6.519802 29.076785 -4.180172 0.000000 0.000000 0.000000 
